<svg width="22" height="22" viewBox="0 0 22 22" fill="none" xmlns="http://www.w3.org/2000/svg">
<g clip-path="url(#clip0_375_2929)">
<path d="M6.82259 4.90405C7.40834 4.90405 7.95009 4.94989 8.44509 5.08555C8.89427 5.16809 9.32303 5.33748 9.70734 5.58422C10.0685 5.81064 10.3389 6.12872 10.5186 6.53664C10.6992 6.94455 10.789 7.44414 10.789 7.98772C10.789 8.62297 10.6543 9.16655 10.3389 9.57447C10.0685 9.9833 9.6175 10.3454 9.07667 10.6176C9.843 10.845 10.4288 11.2529 10.789 11.7965C11.1502 12.341 11.3757 13.0211 11.3757 13.7921C11.3757 14.4273 11.24 14.9709 11.0145 15.4246C10.789 15.8784 10.4288 16.2863 10.0227 16.5586C9.58156 16.8504 9.09394 17.0649 8.58075 17.1929C8.03992 17.3295 7.49909 17.4202 6.95825 17.4202H0.916504V4.90405H6.82259ZM6.46142 9.98239C6.95734 9.98239 7.36342 9.84672 7.67875 9.6203C7.99409 9.39389 8.12975 8.98505 8.12975 8.48639C8.12975 8.21414 8.08392 7.94189 7.99409 7.7613C7.90425 7.5798 7.76859 7.44322 7.58892 7.30755C7.40834 7.2168 7.22775 7.12605 7.00225 7.08114C6.77675 7.0353 6.55217 7.0353 6.28084 7.0353H3.6665V9.9833H6.46234L6.46142 9.98239ZM6.59709 15.3339C6.8675 15.3339 7.13792 15.2881 7.36342 15.2431C7.5911 15.1998 7.80643 15.1069 7.99409 14.9709C8.17777 14.8382 8.33144 14.6683 8.44509 14.4722C8.53492 14.2458 8.62567 13.9736 8.62567 13.6564C8.62567 13.0211 8.44509 12.5674 8.08484 12.2502C7.72367 11.978 7.22775 11.8423 6.642 11.8423H3.6665V15.3348H6.59709V15.3339ZM15.2981 15.2881C15.6583 15.6511 16.1992 15.8326 16.9206 15.8326C17.4165 15.8326 17.8675 15.6969 18.2278 15.4705C18.5889 15.1982 18.8144 14.926 18.9043 14.6537H21.1134C20.7523 15.7418 20.2114 16.5127 19.4909 17.0114C18.7686 17.4651 17.9124 17.7374 16.8757 17.7374C16.2123 17.7394 15.5546 17.6162 14.9369 17.3744C14.3812 17.1659 13.8855 16.8233 13.4941 16.3771C13.0754 15.9596 12.766 15.4455 12.593 14.8801C12.3675 14.2907 12.2768 13.6564 12.2768 12.9304C12.2768 12.2502 12.3675 11.6159 12.593 11.0256C12.8098 10.4573 13.1306 9.93443 13.539 9.48372C13.9451 9.0758 14.441 8.71372 14.9818 8.48639C15.5838 8.24444 16.2269 8.12118 16.8757 8.12339C17.642 8.12339 18.3185 8.25997 18.9043 8.57714C19.4909 8.8943 19.941 9.2573 20.3022 9.8018C20.6706 10.3248 20.9451 10.9079 21.1134 11.5251C21.2033 12.1595 21.2482 12.7947 21.2033 13.5198H14.6665C14.6665 14.2458 14.9369 14.926 15.2981 15.289V15.2881ZM18.1379 10.5269C17.8226 10.2097 17.3267 10.0282 16.74 10.0282C16.3348 10.0282 16.0186 10.119 15.7482 10.2546C15.4778 10.3912 15.2981 10.5727 15.1175 10.7542C14.9516 10.9295 14.8418 11.1504 14.8022 11.3886C14.7563 11.6159 14.7114 11.7965 14.7114 11.978H18.7686C18.6788 11.2978 18.4533 10.845 18.1379 10.5269ZM14.1706 5.76572H19.2196V6.99039H14.1715V5.76572H14.1706Z" fill="#282A31"/>
</g>
<defs>
<clipPath id="clip0_375_2929">
<rect width="22" height="22" fill="white"/>
</clipPath>
</defs>
</svg>
