<svg width="32" height="32" viewBox="0 0 32 32" fill="none" xmlns="http://www.w3.org/2000/svg">
<path d="M21.5682 26.2094C20.7545 25.7804 20.3192 25.1563 20.3192 24.1422C20.3382 18.6036 20.3382 13.0649 20.3192 7.52626C20.3192 6.94119 20.5274 6.49263 20.9437 6.14159C21.2276 5.88806 21.5493 5.69304 21.852 5.47852C20.7923 5.73205 19.7326 5.98558 18.881 6.74616C18.635 6.96069 18.5783 7.25322 18.5783 7.58476C18.5783 11.6217 18.5783 15.6587 18.5783 19.6762L16.7048 17.9015L14.8882 19.7152C14.8882 16.4973 14.8882 13.2599 14.8882 10.0421C14.8882 9.5935 14.7179 9.28146 14.3772 9.02793C13.5068 8.40386 12.5038 8.13083 11.4062 7.83829C11.8036 8.09182 12.1064 8.28685 12.3903 8.50137C12.8444 8.85241 13.1472 9.30096 13.1472 9.92504C13.1472 14.7421 13.1472 19.5787 13.1472 24.3957C13.1472 25.0588 12.8823 25.5659 12.3714 25.9364C12.1443 26.1119 11.8793 26.2485 11.6333 26.4045C12.5795 26.2485 13.4878 26.0339 14.3016 25.4684C14.7179 25.1758 14.9071 24.8053 14.9071 24.2787C14.9071 23.3231 14.9071 22.348 14.9071 21.3924L16.7805 19.5787L18.5972 21.4119C18.5972 22.2895 18.5972 23.1866 18.5972 24.0642C18.5972 24.8053 18.8621 25.3123 19.4866 25.6049C20.2625 25.9559 21.0762 26.2094 21.871 26.5215C21.8899 26.4825 21.9088 26.4435 21.9277 26.4045C21.7953 26.3265 21.6817 26.268 21.5682 26.2094Z" fill="#282A31"/>
</svg>
