<svg width="23" height="22" viewBox="0 0 23 22" fill="none" xmlns="http://www.w3.org/2000/svg">
<path d="M12.3178 0.0550073C15.6783 0.338884 18.4357 2.65045 18.4357 5.81365C18.4357 8.97685 15.7214 11.5723 12.3178 11.5723L13.9981 11.7345C16.9278 14.7355 17.9618 19.602 21.667 21.873C18.6511 22.4002 16.1523 21.2647 14.6443 18.872C13.6103 17.2093 12.5332 15.6277 11.4561 14.0055L9.77584 11.4101V18.5476H4.21801L6.28604 15.7493L6.32912 6.50307C6.32912 4.79981 7.92323 3.42097 9.90509 3.42097C10.5944 3.42097 11.2407 3.58319 11.8008 3.86707C11.8008 3.86707 11.5423 3.82651 11.413 3.82651C10.4652 3.82651 9.68967 4.47537 9.68967 5.327C9.68967 5.65144 9.77584 5.93531 9.99126 6.13808C10.1636 6.34085 10.379 6.42196 10.6806 6.42196C11.1545 6.42196 11.5423 6.09753 11.5423 5.69199C11.5423 5.48922 11.3699 5.2459 11.3699 5.2459C11.8869 5.48922 12.2747 5.97587 12.2747 6.54362C12.2747 7.3547 11.4992 8.00356 10.5944 8.00356C10.5944 8.00356 7.96631 8.12522 8.05248 5.20534C8.05248 5.20534 7.53547 5.81365 7.53547 6.74639C7.53547 8.28743 9.08649 9.66626 11.2838 9.62571C11.2838 9.62571 15.0321 9.4635 15.2475 6.25974C15.2906 2.32602 10.896 0.987745 2.66699 0.947191C2.66699 0.947191 8.05248 -0.269423 12.3178 0.0550073Z" fill="#282A31"/>
</svg>
