<svg width="22" height="18" viewBox="0 0 22 18" fill="none" xmlns="http://www.w3.org/2000/svg">
<path fill-rule="evenodd" clip-rule="evenodd" d="M4.09992 8.52691C8.39488 6.55119 11.2589 5.24867 12.6919 4.61936C16.7834 2.82254 17.6335 2.51042 18.1877 2.50011C18.3095 2.49784 18.5821 2.52973 18.7586 2.68096C18.9076 2.80866 18.9486 2.98116 18.9683 3.10223C18.9879 3.2233 19.0123 3.4991 18.9929 3.7146C18.7712 6.1743 17.8118 12.1433 17.3237 14.8983C17.1172 16.064 16.7105 16.4548 16.3169 16.4931C15.4613 16.5762 14.8116 15.8961 13.9829 15.3225C12.6862 14.4251 11.9537 13.8664 10.695 12.9907C9.24043 11.9786 10.1834 11.4223 11.0124 10.5132C11.2293 10.2753 14.999 6.65509 15.0719 6.32668C15.0811 6.2856 15.0895 6.1325 15.0034 6.05166C14.9172 5.97081 14.7901 5.99846 14.6983 6.02045C14.5683 6.05161 12.4968 7.49723 8.48389 10.3573C7.89591 10.7836 7.36333 10.9913 6.88616 10.9804C6.36012 10.9684 5.34822 10.6664 4.59598 10.4082C3.67333 10.0915 2.94002 9.92412 3.00388 9.38633C3.03714 9.10621 3.40248 8.81974 4.09992 8.52691Z" fill="#282A31"/>
</svg>
