<svg width="22" height="18" viewBox="0 0 22 18" fill="none" xmlns="http://www.w3.org/2000/svg">
<path d="M16.2752 6.36189L16.5948 7.00109C17.0497 7.91213 16.6113 9.03716 15.4334 9.36465C15.4185 9.3696 13.7871 9.80753 13.2916 8.32346L12.8141 6.88895L14.173 5.52941L10.8196 0.5L7.46625 5.52941L8.8252 6.88895L8.34765 8.32346C7.80114 9.96089 5.55195 9.57539 5.02154 8.42071C4.8122 7.96608 4.82087 7.44891 5.04446 7.00109L5.36345 6.36248L0 4.44797L2.57435 14.3284L3.84285 15.5969H17.7964L19.0649 14.3284L21.6442 4.4486L16.2752 6.36189Z" fill="#FED843"/>
<path d="M19.0656 14.3284L21.6449 4.4486L16.2759 6.36189L16.5955 7.00109C17.0504 7.91213 16.612 9.03716 15.4341 9.36465C15.4192 9.3696 13.7878 9.80753 13.2923 8.32346L12.8147 6.88895L14.1737 5.52941L10.8203 0.5V15.5969H17.7971L19.0656 14.3284Z" fill="#FABE2C"/>
<path d="M10.8224 14.3281H2.57715V17.4994H19.0677V14.3281H10.8224Z" fill="#FABE2C"/>
<path d="M10.8203 14.3281H19.0656V17.4994H10.8203V14.3281Z" fill="#FF9100"/>
<path d="M7.64648 14.3278L10.8172 11.157L13.9881 14.3278L10.8172 17.4986L7.64648 14.3278Z" fill="#FABE2C"/>
<path d="M10.8203 11.1575V17.5L13.9916 14.3287L10.8203 11.1575Z" fill="#FF9100"/>
</svg>
