<svg width="48" height="48" viewBox="0 0 48 48" fill="none" xmlns="http://www.w3.org/2000/svg">
<rect width="48" height="48" rx="7" fill="#6727F0"/>
<path d="M33.0402 33.8367L7.74219 33.8433L21.4822 9.84567C22.0369 8.8802 23.0492 8.2583 24.1586 8.2583H24.1758C24.5622 8.2583 24.942 8.26917 25.3219 8.29527L12.1474 31.2991H31.5876L33.0402 33.8367Z" fill="white"/>
<path d="M38.7145 37.155L11.2085 37.1615C10.0689 37.1615 9.02429 36.5353 8.45664 35.535C8.27966 35.2241 8.11346 34.9088 7.95806 34.5869L34.3223 34.5804L24.6011 17.6195L26.0558 15.0818L38.7145 37.155Z" fill="white"/>
<path d="M39.2535 36.5875C39.4521 36.2917 39.6377 35.9873 39.8168 35.6807C40.3931 34.687 40.4104 33.4627 39.8384 32.4668L26.0811 8.47795L13.4375 30.5533H16.3448L26.0638 13.5902L39.2535 36.5875Z" fill="white"/>
</svg>
