<svg width="48" height="48" viewBox="0 0 48 48" fill="none" xmlns="http://www.w3.org/2000/svg">
<g clip-path="url(#clip0_757_4906)">
<path d="M0 48V0H48V48H0ZM23.987 9.99211C20.7642 9.9708 17.6358 10.4941 14.6256 11.6519C11.469 12.8666 8.69505 14.6377 6.56618 17.3252C3.44022 21.2723 3.20158 26.1855 5.95422 30.3931C7.62944 32.9526 9.95678 34.7758 12.6834 36.0734C18.907 39.0355 25.3456 39.3575 31.9047 37.4041C35.3756 36.3694 38.4709 34.6338 40.8597 31.8421C43.8958 28.2952 44.8079 24.3149 42.9153 19.9274C41.6441 16.9818 39.3806 14.8911 36.6634 13.2833C32.7553 10.9724 28.4928 10.0039 23.987 9.99448V9.99211Z" fill="#095AF7"/>
<path d="M23.9869 9.99201C28.4928 10.0015 32.7552 10.9699 36.6633 13.2809C39.3805 14.8886 41.644 16.9794 42.9152 19.9249C44.8078 24.3125 43.8958 28.2951 40.8596 31.8397C38.4708 34.6313 35.3755 36.3669 31.9046 37.4016C25.3455 39.3551 18.9069 39.033 12.6834 36.0709C9.9567 34.7734 7.62935 32.9502 5.95414 30.3906C3.20149 26.1854 3.44249 21.2722 6.5661 17.3227C8.69261 14.6353 11.4689 12.8665 14.6256 11.6495C17.6358 10.4892 20.7641 9.96833 23.9869 9.98964V9.99201ZM23.9397 16.7615C21.7635 16.7568 19.637 17.0717 17.5814 17.7892C15.4691 18.5256 13.5269 19.5508 12.0407 21.284C10.3985 23.1996 10.3678 25.2477 11.9556 27.2083C12.9196 28.3969 14.1341 29.2801 15.5069 29.9241C20.7499 32.3866 26.0803 32.4814 31.4462 30.374C33.3223 29.6376 34.9928 28.5579 36.2049 26.891C37.4595 25.1672 37.4383 23.3559 36.1671 21.6439C35.4512 20.6802 34.5509 19.9226 33.5373 19.2975C30.5933 17.4814 27.3539 16.7829 23.9373 16.7592L23.9397 16.7615Z" fill="#FFFDFF"/>
<path d="M23.9398 16.7617C27.3564 16.7854 30.5958 17.4815 33.5398 19.3C34.5535 19.9251 35.4537 20.6828 36.1696 21.6465C37.4408 23.3584 37.4644 25.1698 36.2074 26.8935C34.993 28.5605 33.3225 29.6402 31.4488 30.3766C26.0829 32.4839 20.7524 32.3892 15.5094 29.9267C14.1366 29.2826 12.9222 28.3994 11.9581 27.2108C10.3704 25.2503 10.4011 23.2045 12.0432 21.2866C13.5294 19.5534 15.4716 18.5281 17.5839 17.7917C19.6396 17.0743 21.7661 16.7594 23.9422 16.7641L23.9398 16.7617Z" fill="#095AF7"/>
</g>
<defs>
<clipPath id="clip0_757_4906">
<rect width="48" height="48" rx="7" fill="white"/>
</clipPath>
</defs>
</svg>
