<svg width="48" height="48" viewBox="0 0 48 48" fill="none" xmlns="http://www.w3.org/2000/svg">
<rect width="48" height="48" rx="7" fill="#CCCCCC"/>
<path d="M23.7994 42.0596C23.7547 42.0596 23.7101 42.0596 23.6655 42.0596C17.1933 42.0059 12.0244 36.6077 12.0244 30.1173V23.7701L23.8172 17.9512L23.7994 42.0596Z" fill="#FFDD2D"/>
<path d="M23.8164 17.9512L35.6092 23.7701V30.1173C35.6092 36.6077 30.4404 42.0059 23.9682 42.0596C23.9235 42.0596 23.8789 42.0596 23.8343 42.0596L23.8164 17.9512Z" fill="#F4C500"/>
<path d="M28.2621 11.3267L23.8164 9.10655V6.79688L28.2621 8.98122V11.3267Z" fill="#F4C500"/>
<path d="M19.3887 11.3178L23.8166 9.10655V6.79688L19.3887 8.98122V11.3178Z" fill="#FFDD2D"/>
<path d="M31.9312 18.6854L23.8164 14.6748V12.374L31.9312 16.3399V18.6854Z" fill="#F4C500"/>
<path d="M15.7021 18.6764L23.817 14.6748V12.374L15.7021 16.3399V18.6764Z" fill="#FFDD2D"/>
<path d="M31.1907 7.17286L23.8168 3.5293L16.4698 7.15496C9.28339 10.0644 4.22168 17.1188 4.22168 25.3549C4.22168 36.196 12.9882 44.9871 23.799 44.9871C34.6098 44.9871 43.3763 36.196 43.3763 25.3549C43.3763 17.1367 38.3324 10.1002 31.1907 7.17286ZM31.1907 10.3957C36.672 13.1351 40.4571 18.8108 40.4571 25.3549C40.4571 28.1569 39.7608 30.7978 38.5378 33.1254V21.9351L34.8598 20.1268V14.5585L31.1907 12.7501V10.4046V10.3957ZM19.389 9.25873V8.98121L23.8168 6.80582L28.2626 8.99017V9.27664V10.1629V11.2998L23.8168 9.10655L19.389 11.2909V9.25873ZM23.8168 12.3741L31.9406 16.3758V18.6765L23.8168 14.6748L15.702 18.6765V16.3758L23.8168 12.3741ZM16.4608 10.3688V12.7322L12.7739 14.5495V20.1178L9.09592 21.9351V33.1791C7.85504 30.8426 7.1498 28.1838 7.1498 25.3549C7.1498 18.7839 10.9528 13.0903 16.4608 10.3688ZM23.799 42.0598C23.7544 42.0598 23.7097 42.0598 23.6651 42.0598C17.1929 42.006 12.024 36.6078 12.024 30.1175V23.7703L23.8168 17.9514L35.6097 23.7703V30.1175C35.6097 36.6078 30.4408 41.9971 23.9686 42.0598C23.915 42.0598 23.8615 42.0598 23.799 42.0598Z" fill="#1E2323"/>
<path d="M31.1914 10.396C36.6727 13.1354 40.4578 18.8111 40.4578 25.3552C40.4578 28.1572 39.7615 30.7982 38.5385 33.1257V21.9354L34.8605 20.1271V14.5588L31.1914 12.7504V10.4049V10.396Z" fill="#CCCCCC"/>
<path d="M16.4605 10.3687V12.732L12.7735 14.5494V20.1176L9.09554 21.935V33.179C7.85466 30.8424 7.14941 28.1836 7.14941 25.3547C7.14941 18.7838 10.9524 13.0901 16.4605 10.3687Z" fill="#CCCCCC"/>
<path d="M29.9504 25.9101C28.8345 25.0685 27.3258 24.603 25.7099 24.603H22.1659C21.7195 24.603 21.2821 24.7015 20.8893 24.8985L18.961 25.8474C18.6485 25.9996 18.4521 26.3129 18.4521 26.662V34.4594C18.4521 35.8918 19.6038 37.0646 21.041 37.0646H21.3446V33.788L25.7546 33.7612C29.0934 33.7433 31.709 31.729 31.709 29.1776C31.709 27.9243 31.0841 26.7605 29.9504 25.9011V25.9101ZM21.3535 27.5125H25.7189C27.6382 27.5125 28.8166 28.4883 28.8166 29.1866C28.8166 29.8849 27.6471 30.8517 25.7457 30.8606L21.3535 30.8875V27.5125Z" fill="#1E2323"/>
</svg>
