<svg width="48" height="48" viewBox="0 0 48 48" fill="none" xmlns="http://www.w3.org/2000/svg">
<rect width="48" height="48" rx="7" fill="#20232A"/>
<path d="M24.5711 7.84584C29.4402 8.26482 33.4354 11.6765 33.4354 16.3452C33.4354 21.0139 29.5027 24.8446 24.5711 24.8446L27.0057 25.084C31.2506 29.5133 32.7488 36.6959 38.1173 40.0477C33.7476 40.8259 30.1269 39.1499 27.942 35.6185C26.4438 33.1644 24.8832 30.8301 23.3226 28.4359L20.888 24.6052V35.1396H12.8352L15.8316 31.0097L15.894 17.3628C15.894 14.8489 18.2037 12.8138 21.0753 12.8138C22.0741 12.8138 23.0105 13.0532 23.822 13.4722C23.822 13.4722 23.4474 13.4123 23.2602 13.4123C21.8868 13.4123 20.7632 14.37 20.7632 15.627C20.7632 16.1058 20.888 16.5248 21.2001 16.8241C21.4498 17.1233 21.762 17.243 22.1989 17.243C22.8856 17.243 23.4474 16.7642 23.4474 16.1657C23.4474 15.8664 23.1977 15.5073 23.1977 15.5073C23.9468 15.8664 24.5087 16.5846 24.5087 17.4226C24.5087 18.6197 23.385 19.5774 22.0741 19.5774C22.0741 19.5774 18.2662 19.757 18.391 15.4474C18.391 15.4474 17.6419 16.3452 17.6419 17.7219C17.6419 19.9964 19.8892 22.0314 23.0729 21.9716C23.0729 21.9716 28.5039 21.7322 28.816 17.0036C28.8784 11.1977 22.5111 9.2225 10.5879 9.16264C10.5879 9.16264 18.391 7.367 24.5711 7.84584Z" fill="#FCB755"/>
</svg>
