<svg width="22" height="22" viewBox="0 0 22 22" fill="none" xmlns="http://www.w3.org/2000/svg">
<path d="M17.1181 17.8219H0L9.29887 2.04674C9.67687 1.41235 10.3573 1 11.1133 1H11.1241C11.3833 1 11.6425 1.01057 11.9017 1.02115L2.98082 16.1514H16.1353L17.1181 17.8219Z" fill="#282A31"/>
<path d="M20.9629 20H2.34361C1.5768 20 0.863997 19.5876 0.485995 18.9321C0.367194 18.7312 0.259193 18.5198 0.151193 18.3083H17.9929L11.4049 7.15359L12.3877 5.48303L20.9629 20Z" fill="#282A31"/>
<path d="M21.6974 19.0378C21.5786 19.2387 21.449 19.4396 21.3194 19.6299L12.3985 4.51029L5.82126 15.665H3.84485L12.4093 1.14802L21.719 16.9232C22.1078 17.5787 22.0862 18.3823 21.6974 19.0378Z" fill="#282A31"/>
</svg>
