<svg width="22" height="22" viewBox="0 0 22 22" fill="none" xmlns="http://www.w3.org/2000/svg">
<path d="M11.6508 0.0550073C15.0113 0.338884 17.7687 2.65045 17.7687 5.81365C17.7687 8.97685 15.0544 11.5723 11.6508 11.5723L13.3311 11.7345C16.2608 14.7355 17.2948 19.602 21 21.873C17.9841 22.4002 15.4853 21.2647 13.9773 18.872C12.9433 17.2093 11.8662 15.6277 10.7891 14.0055L9.10884 11.4101V18.5476H3.55102L5.61905 15.7493L5.66213 6.50307C5.66213 4.79981 7.25624 3.42097 9.2381 3.42097C9.92744 3.42097 10.5737 3.58319 11.1338 3.86707C11.1338 3.86707 10.8753 3.82651 10.746 3.82651C9.79819 3.82651 9.02268 4.47537 9.02268 5.327C9.02268 5.65144 9.10884 5.93531 9.32426 6.13808C9.4966 6.34085 9.71202 6.42196 10.0136 6.42196C10.4875 6.42196 10.8753 6.09753 10.8753 5.69199C10.8753 5.48922 10.7029 5.2459 10.7029 5.2459C11.22 5.48922 11.6077 5.97587 11.6077 6.54362C11.6077 7.3547 10.8322 8.00356 9.92744 8.00356C9.92744 8.00356 7.29932 8.12522 7.38549 5.20534C7.38549 5.20534 6.86848 5.81365 6.86848 6.74639C6.86848 8.28743 8.4195 9.66626 10.6168 9.62571C10.6168 9.62571 14.3651 9.4635 14.5805 6.25974C14.6236 2.32602 10.229 0.987745 2 0.947191C2 0.947191 7.38549 -0.269423 11.6508 0.0550073Z" fill="#282A31"/>
</svg>
