<svg width="17" height="16" viewBox="0 0 17 16" fill="none" xmlns="http://www.w3.org/2000/svg">
<path d="M9.34505 2.66667C9.34505 2.29848 9.04658 2 8.67839 2C8.3102 2 8.01172 2.29848 8.01172 2.66667V9.05719L5.81646 6.86193C5.55611 6.60158 5.134 6.60158 4.87365 6.86193C4.6133 7.12228 4.6133 7.54439 4.87365 7.80474L8.20698 11.1381C8.46733 11.3984 8.88944 11.3984 9.14979 11.1381L12.4831 7.80474C12.7435 7.54439 12.7435 7.12228 12.4831 6.86193C12.2228 6.60158 11.8007 6.60158 11.5403 6.86193L9.34505 9.05719V2.66667Z" fill="white"/>
<path d="M14.207 8.19518C14.332 8.07016 14.5016 7.99992 14.6784 7.99992C14.8552 7.99992 15.0248 8.07016 15.1498 8.19518C15.2748 8.32021 15.3451 8.48977 15.3451 8.66659V10.8086C15.3442 11.6547 15.0077 12.4659 14.4094 13.0642C13.8111 13.6625 12.9998 13.999 12.1537 13.9999H5.20305C4.35693 13.999 3.54571 13.6625 2.94741 13.0642C2.34911 12.4659 2.0126 11.6547 2.01172 10.8086V8.66659C2.01172 8.48977 2.08196 8.32021 2.20698 8.19518C2.33201 8.07016 2.50157 7.99992 2.67839 7.99992C2.8552 7.99992 3.02477 8.07016 3.14979 8.19518C3.27481 8.32021 3.34505 8.48977 3.34505 8.66659V10.8086C3.34558 11.3012 3.5415 11.7735 3.88983 12.1218C4.23816 12.4701 4.71044 12.6661 5.20305 12.6666H12.1537C12.6463 12.6661 13.1186 12.4701 13.4669 12.1218C13.8153 11.7735 14.0112 11.3012 14.0117 10.8086V8.66659C14.0117 8.48977 14.082 8.32021 14.207 8.19518Z" fill="white"/>
</svg>
