<svg width="32" height="32" viewBox="0 0 32 32" fill="none" xmlns="http://www.w3.org/2000/svg">
<path fill-rule="evenodd" clip-rule="evenodd" d="M9 9.91312C9 8.8753 9.41469 7.87998 10.1528 7.14613C10.891 6.41227 11.8922 6 12.9361 6H19.0588C19.8728 5.9999 20.6668 6.2507 21.3315 6.71786C21.9962 7.18502 22.4988 7.84556 22.7702 8.60851C23.0416 9.37147 23.0683 10.1993 22.8468 10.978C22.6253 11.7567 22.1664 12.448 21.5333 12.9567C22.323 13.5892 22.8366 14.5002 22.9672 15.5C23.0978 16.4998 22.8352 17.5111 22.2342 18.3231C21.6332 19.1351 20.7401 19.6852 19.7411 19.8587C18.7422 20.0321 17.7144 19.8156 16.8721 19.2542V22.0873C16.872 22.7483 16.7036 23.3985 16.3824 23.9772C16.0612 24.5559 15.5978 25.0444 15.0354 25.3969C14.4731 25.7495 13.83 25.9546 13.1663 25.9933C12.5026 26.032 11.8398 25.9028 11.2399 25.618C10.6399 25.3332 10.1223 24.9019 9.73536 24.3644C9.3484 23.8269 9.10469 23.2007 9.02698 22.5443C8.94927 21.8878 9.04008 21.2225 9.29095 20.6104C9.54181 19.9982 9.94455 19.4593 10.4616 19.0437C9.56942 18.3263 9 17.2298 9 16.0002C9 14.7706 9.57029 13.6741 10.4616 12.9567C10.0047 12.5902 9.63622 12.1265 9.38329 11.5998C9.13035 11.0731 8.99938 10.4968 9 9.91312ZM12.9361 12.0871H15.1228V7.73917H12.9361C12.3561 7.73917 11.7999 7.96821 11.3898 8.3759C10.9797 8.7836 10.7494 9.33655 10.7494 9.91312C10.7494 10.4897 10.9797 11.0426 11.3898 11.4503C11.7999 11.858 12.3561 12.0871 12.9361 12.0871ZM16.8721 7.73917V12.0871H19.0588C19.6388 12.0871 20.195 11.858 20.605 11.4503C21.0151 11.0426 21.2455 10.4897 21.2455 9.91312C21.2455 9.33655 21.0151 8.7836 20.605 8.3759C20.195 7.96821 19.6388 7.73917 19.0588 7.73917H16.8721ZM15.1228 13.8262H12.9361C12.3561 13.8262 11.7999 14.0553 11.3898 14.463C10.9797 14.8707 10.7494 15.4236 10.7494 16.0002C10.7494 16.5768 10.9797 17.1297 11.3898 17.5374C11.7999 17.9451 12.3561 18.1742 12.9361 18.1742H15.1228V13.8262ZM15.1228 19.9133H12.9361C12.5036 19.9133 12.0808 20.0408 11.7212 20.2797C11.3616 20.5186 11.0813 20.8581 10.9158 21.2553C10.7503 21.6526 10.707 22.0897 10.7914 22.5114C10.8758 22.9331 11.084 23.3205 11.3898 23.6245C11.6956 23.9285 12.0853 24.1356 12.5095 24.2195C12.9336 24.3033 13.3733 24.2603 13.7729 24.0958C14.1724 23.9312 14.514 23.6526 14.7542 23.2951C14.9945 22.9376 15.1228 22.5172 15.1228 22.0873V19.9133ZM19.0588 13.8262C18.4789 13.8262 17.9227 14.0553 17.5126 14.463C17.1025 14.8707 16.8721 15.4236 16.8721 16.0002C16.8721 16.5768 17.1025 17.1297 17.5126 17.5374C17.9227 17.9451 18.4789 18.1742 19.0588 18.1742C19.6388 18.1742 20.195 17.9451 20.605 17.5374C21.0151 17.1297 21.2455 16.5768 21.2455 16.0002C21.2455 15.4236 21.0151 14.8707 20.605 14.463C20.195 14.0553 19.6388 13.8262 19.0588 13.8262Z" fill="#282A31"/>
</svg>
