<svg width="33" height="33" viewBox="0 0 33 33" fill="none" xmlns="http://www.w3.org/2000/svg">
<path d="M22.7894 26.5973C21.6264 27.7583 20.3565 27.575 19.1342 27.025C17.8406 26.4629 16.6538 26.4384 15.289 27.025C13.58 27.7827 12.6781 27.5627 11.6574 26.5973C5.86594 20.4503 6.72042 11.0893 13.2952 10.7471C14.8973 10.8326 16.0129 11.6514 16.9505 11.7247C18.3509 11.4315 19.6919 10.5882 21.1873 10.6982C22.9793 10.8449 24.3323 11.5781 25.2223 12.8979C21.5196 15.1832 22.3978 20.2059 25.792 21.6113C25.1155 23.4444 24.2373 25.2653 22.7776 26.6095L22.7894 26.5973ZM16.8318 10.6738C16.6538 7.94856 18.8019 5.69995 21.2704 5.47998C21.6145 8.63292 18.4933 10.9793 16.8318 10.6738Z" fill="#282A31"/>
</svg>
