<svg width="20" height="11" viewBox="0 0 20 11" fill="none" xmlns="http://www.w3.org/2000/svg">
<path d="M0.580938 10.5V-7.15256e-07H5.12594C6.06594 -7.15256e-07 6.87594 0.154999 7.55594 0.465C8.23594 0.764999 8.76094 1.2 9.13094 1.77C9.50094 2.34 9.68594 3.02 9.68594 3.81C9.68594 4.59 9.50094 5.265 9.13094 5.835C8.76094 6.395 8.23594 6.825 7.55594 7.125C6.87594 7.425 6.06594 7.575 5.12594 7.575H1.93094L3.01094 6.51V10.5H0.580938ZM7.25594 10.5L4.63094 6.69H7.22594L9.88094 10.5H7.25594ZM3.01094 6.78L1.93094 5.64H4.99094C5.74094 5.64 6.30094 5.48 6.67094 5.16C7.04094 4.83 7.22594 4.38 7.22594 3.81C7.22594 3.23 7.04094 2.78 6.67094 2.46C6.30094 2.14 5.74094 1.98 4.99094 1.98H1.93094L3.01094 0.824999V6.78ZM14.8512 10.62C14.1812 10.62 13.5812 10.49 13.0512 10.23C12.5312 9.97 12.1262 9.575 11.8362 9.045C11.5462 8.505 11.4012 7.82 11.4012 6.99V2.43H13.7412V6.645C13.7412 7.315 13.8812 7.81 14.1612 8.13C14.4512 8.44 14.8562 8.595 15.3762 8.595C15.7362 8.595 16.0562 8.52 16.3362 8.37C16.6162 8.21 16.8362 7.97 16.9962 7.65C17.1562 7.32 17.2362 6.91 17.2362 6.42V2.43H19.5762V10.5H17.3562V8.28L17.7612 8.925C17.4912 9.485 17.0912 9.91 16.5612 10.2C16.0412 10.48 15.4712 10.62 14.8512 10.62Z" fill="#282A31"/>
</svg>
