<svg width="122" height="46" viewBox="0 0 122 46" fill="none" xmlns="http://www.w3.org/2000/svg">
<g clip-path="url(#clip0_281_161)">
<path d="M43.0587 16.8569H38.9472L32.1445 31.0675V16.8569H28.332V45.5H32.1445V37.9507L34.9852 32.3997L39.6948 45.5H43.9558L37.1531 28.1809L43.0587 16.8569Z" fill="#282A31"/>
<path d="M48.1424 16.8569H46.1987V45.5H48.1424H49.9365H58.608V41.9474H49.9365V33.0658H57.6362V29.5132H49.9365V20.3356H58.608V16.8569H49.9365H48.1424Z" fill="#282A31"/>
<path d="M65.3359 16.8569H61.5981V45.5H63.6165H65.3359H73.6337V41.9474H65.3359V16.8569Z" fill="#282A31"/>
<path d="M80.3613 16.8569H76.6235V45.5H78.6419H80.3613H88.6591V41.9474H80.3613V16.8569Z" fill="#282A31"/>
<path d="M93.593 16.8569H91.6494V45.5H93.593H95.3872H104.059V41.9474H95.3872V33.0658H103.087V29.5132H95.3872V20.3356H104.059V16.8569H95.3872H93.593Z" fill="#282A31"/>
<path d="M122 45.5L117.739 32.6217H117.814C118.935 32.1036 119.757 31.3635 120.355 30.3273C120.953 29.2911 121.252 28.1069 121.252 26.7007V23.3701C121.252 22.0379 120.953 20.8536 120.355 19.8175C119.757 18.8553 118.935 18.1152 117.814 17.5971C116.692 17.079 115.421 16.8569 113.852 16.8569H110.861H108.843H107.049V45.574H110.861V33.3619H113.852C113.926 33.3619 114.001 33.3619 114.076 33.3619L117.814 45.5H122ZM110.787 20.3356H114.076C114.749 20.3356 115.347 20.4836 115.795 20.7056C116.244 21.0017 116.617 21.3717 116.916 21.8898C117.141 22.4079 117.29 23 117.29 23.7402V26.6267C117.29 27.2928 117.141 27.8849 116.916 28.329C116.692 28.7731 116.318 29.1431 115.795 29.4392C115.347 29.6612 114.749 29.8092 114.076 29.8092H110.787V20.3356Z" fill="#282A31"/>
<path d="M30.5747 10.4919H33.3407L33.8639 13.2304H35.6581L32.6679 0.796143H31.1728L28.2573 13.2304H30.0514L30.5747 10.4919ZM31.9203 3.31259L32.9669 8.93759H30.799L31.9203 3.31259Z" fill="#282A31"/>
<path d="M38.2744 4.64483L41.4142 13.1563H42.8345V0.796143H41.2646V9.52969L38.1249 0.796143H36.7046V13.1563H38.2744V4.64483Z" fill="#282A31"/>
<path d="M46.6469 13.1563H48.2915V2.27641H50.4594V0.796143H44.4043V2.27641H46.6469V13.1563Z" fill="#282A31"/>
<path d="M52.7768 12.9341C53.2253 13.1562 53.8234 13.3042 54.4214 13.3042C55.0194 13.3042 55.6175 13.1562 56.066 12.9341C56.5145 12.7121 56.8883 12.342 57.1126 11.8979C57.3368 11.4539 57.4864 10.8618 57.4864 10.1956V3.7565C57.4864 3.09038 57.3368 2.49828 57.1126 2.0542C56.8883 1.61012 56.5145 1.24005 56.066 1.01801C55.6175 0.795976 55.0194 0.647949 54.4214 0.647949C53.8234 0.647949 53.2253 0.795976 52.7768 1.01801C52.3283 1.24005 51.9545 1.61012 51.7302 2.0542C51.506 2.49828 51.3564 3.09038 51.3564 3.7565V10.1956C51.3564 10.8618 51.506 11.3799 51.7302 11.8979C51.9545 12.342 52.3283 12.7121 52.7768 12.9341ZM53.0011 3.68249C53.0011 3.38644 53.0758 3.09038 53.1506 2.86834C53.3001 2.6463 53.4496 2.49828 53.6739 2.35025C53.8981 2.20223 54.1971 2.20223 54.4962 2.20223C54.7952 2.20223 55.0942 2.27624 55.3185 2.35025C55.5427 2.49828 55.6922 2.6463 55.8417 2.86834C55.9912 3.09038 55.9913 3.38644 55.9913 3.68249V10.1956C55.9913 10.4917 55.9165 10.7878 55.8417 11.0098C55.6922 11.2318 55.5427 11.3799 55.3185 11.5279C55.0942 11.6759 54.7952 11.6759 54.4962 11.6759C54.1971 11.6759 53.8981 11.6019 53.6739 11.5279C53.4496 11.3799 53.3001 11.2318 53.1506 11.0098C53.0011 10.7878 53.0011 10.4917 53.0011 10.1956V3.68249Z" fill="#282A31"/>
<path d="M63.8409 13.1563H65.2613V0.796143H63.6914V9.52969L60.5517 0.796143H59.1313V13.1563H60.7012V4.64483L63.8409 13.1563Z" fill="#282A31"/>
<path d="M0 0.5V34.8421L8.4473 0.5H0Z" fill="#282A31"/>
<path d="M5.90576 36.4704H13.6055V19.6694H19.5112V36.4704H21.679V0.5H14.5026L5.90576 36.4704Z" fill="#282A31"/>
<path d="M21.6791 43.2056H19.5112V45.5H21.6791V43.2056Z" fill="#282A31"/>
<path d="M13.6054 43.2056H0V45.5H13.6054V43.2056Z" fill="#282A31"/>
</g>
<defs>
<clipPath id="clip0_281_161">
<rect width="122" height="45" fill="white" transform="translate(0 0.5)"/>
</clipPath>
</defs>
</svg>
