<svg width="21" height="20" viewBox="0 0 21 20" fill="none" xmlns="http://www.w3.org/2000/svg">
<path fill-rule="evenodd" clip-rule="evenodd" d="M3.51838 0C1.67744 0 0.185059 1.49238 0.185059 3.33332V16.6666C0.185059 18.5076 1.67744 19.9999 3.51838 19.9999H16.8517C18.6926 19.9999 20.185 18.5076 20.185 16.6666V3.33332C20.185 1.49238 18.6926 0 16.8517 0H3.51838ZM4.76838 2.49999C3.61779 2.49999 2.68505 3.43273 2.68505 4.58332V15.4166C2.68505 16.5672 3.61779 17.5 4.76838 17.5H15.6017C16.7523 17.5 17.685 16.5672 17.685 15.4166V4.58332C17.685 3.43273 16.7523 2.49999 15.6017 2.49999H4.76838Z" fill="#282A31"/>
</svg>
