<svg width="20" height="20" viewBox="0 0 20 20" fill="none" xmlns="http://www.w3.org/2000/svg">
<path d="M4.69667 5.5299L10 0.226562L15.3033 5.5299C16.3522 6.57879 17.0665 7.91517 17.3559 9.37002C17.6453 10.8249 17.4968 12.3329 16.9291 13.7033C16.3614 15.0738 15.4001 16.2451 14.1668 17.0692C12.9334 17.8933 11.4834 18.3332 10 18.3332C8.51665 18.3332 7.0666 17.8933 5.83324 17.0692C4.59987 16.2451 3.63858 15.0738 3.07092 13.7033C2.50326 12.3329 2.35473 10.8249 2.64411 9.37002C2.93349 7.91517 3.64779 6.57879 4.69667 5.5299V5.5299ZM5.875 6.70823C5.05891 7.52424 4.5032 8.56398 4.27819 9.6959C4.05319 10.8278 4.16899 12.0011 4.61095 13.0671C5.0529 14.1332 5.80116 15.0443 6.76104 15.685C7.72091 16.3257 8.84927 16.6673 10.0033 16.6666L10 2.58323L5.875 6.70823Z" fill="#282A31"/>
</svg>
